<?xml version="1.0" encoding="utf-8"?>
<!DOCTYPE svg PUBLIC "-//W3C//DTD SVG 1.1//EN" "http://www.w3.org/Graphics/SVG/1.1/DTD/svg11.dtd">
<svg version="1.1" xmlns="http://www.w3.org/2000/svg" xmlns:xlink="http://www.w3.org/1999/xlink" x="0px" y="0px"
	 viewBox="0 0 249.5 48.5" enable-background="new 0 0 249.5 48.5">
<g>
	<path fill="#FFFFFF" d="M65.9,11.9c3.8,0,7,1.4,9.5,4.1c2.3,2.5,3.4,5.5,3.4,9c0,3.5-1.2,6.5-3.6,9.1s-5.5,3.9-9.3,3.9c-3.8,0-6.9-1.3-9.3-3.9C54.2,31.5,53,28.4,53,25c0-3.4,1.1-6.4,3.4-8.9C58.9,13.3,62.1,11.9,65.9,11.9z M65.9,15c-2.7,0-4.9,1-6.8,2.9c-1.9,2-2.9,4.3-2.9,7.1c0,1.8,0.4,3.5,1.3,5c0.9,1.5,2,2.7,3.5,3.6c1.5,0.8,3.1,1.3,4.9,1.3c1.8,0,3.4-0.4,4.9-1.3c1.5-0.8,2.7-2,3.5-3.6c0.9-1.6,1.3-3.2,1.3-5c0-2.8-1-5.2-2.9-7.1C70.8,16,68.5,15,65.9,15z"/>
	<path fill="#FFFFFF" d="M84.8,12.5H88v4.6c1.3-1.7,2.7-3,4.3-3.9c1.6-0.9,3.5-1.3,5.5-1.3c3.5,0,6.5,1.3,9,3.8c2.5,2.5,3.8,5.6,3.8,9.2c0,3.6-1.2,6.7-3.7,9.3c-2.5,2.5-5.5,3.8-9,3.8c-2,0-3.8-0.4-5.4-1.2c-1.7-0.8-3.1-2-4.5-3.7v13.3h-3.2V12.5z M97.6,14.9c-2.8,0-5.1,1-7,2.9c-1.9,1.9-2.8,4.3-2.8,7.2c0,1.9,0.4,3.6,1.3,5.1s2,2.7,3.6,3.6c1.6,0.9,3.2,1.3,5,1.3c1.7,0,3.3-0.4,4.8-1.3c1.5-0.9,2.7-2.1,3.6-3.7c0.9-1.6,1.3-3.3,1.3-5c0-1.8-0.4-3.4-1.3-5c-0.9-1.6-2.1-2.8-3.6-3.7C101,15.4,99.3,14.9,97.6,14.9z"/>
	<path fill="#63A8C6" d="M129.1,15.2l-2.1,2.1c-1.7-1.7-3.4-2.5-5-2.5c-1,0-1.9,0.3-2.7,1c-0.7,0.7-1.1,1.5-1.1,2.4c0,0.8,0.3,1.6,0.9,2.3c0.6,0.7,1.9,1.6,3.8,2.6c2.4,1.2,4,2.4,4.8,3.6c0.8,1.2,1.3,2.5,1.3,3.9c0,2-0.7,3.8-2.1,5.2c-1.4,1.4-3.2,2.1-5.4,2.1c-1.4,0-2.8-0.3-4.1-0.9c-1.3-0.6-2.4-1.5-3.2-2.6l2-2.3c1.6,1.8,3.4,2.8,5.2,2.8c1.3,0,2.4-0.4,3.3-1.2c0.9-0.8,1.3-1.8,1.3-2.9c0-0.9-0.3-1.7-0.9-2.4c-0.6-0.7-1.9-1.6-4-2.6c-2.2-1.2-3.8-2.3-4.6-3.4c-0.8-1.1-1.2-2.4-1.2-3.9c0-1.9,0.6-3.4,1.9-4.7c1.3-1.2,2.9-1.9,4.9-1.9C124.4,11.9,126.7,13,129.1,15.2z"/>
	<path fill="#63A8C6" d="M155.6,29.1l2.7,1.4c-0.9,1.7-1.9,3.1-3.1,4.2c-1.2,1.1-2.5,1.9-3.9,2.4c-1.4,0.6-3.1,0.8-4.9,0.8c-4,0-7.2-1.3-9.5-4c-2.3-2.7-3.4-5.6-3.4-9c0-3.1,1-5.9,2.9-8.4c2.4-3.1,5.7-4.7,9.8-4.7c4.2,0,7.6,1.6,10.1,4.8c1.8,2.3,2.7,5.1,2.7,8.5h-22.3c0.1,2.9,1,5.2,2.8,7.1c1.8,1.8,4,2.8,6.6,2.8c1.3,0,2.5-0.2,3.7-0.7c1.2-0.4,2.2-1,3-1.7C153.7,31.9,154.6,30.7,155.6,29.1z M155.6,22.4c-0.4-1.7-1-3.1-1.9-4.1c-0.8-1-1.9-1.8-3.2-2.5c-1.3-0.6-2.7-0.9-4.2-0.9c-2.4,0-4.5,0.8-6.3,2.3c-1.3,1.1-2.2,2.8-2.9,5.1H155.6z"/>
	<path fill="#63A8C6" d="M163.8,12.5h3.3v3.6c1-1.4,2-2.5,3.1-3.2c1.1-0.7,2.2-1.1,3.4-1.1c0.9,0,1.8,0.3,2.8,0.8l-1.7,2.7c-0.7-0.3-1.2-0.4-1.7-0.4c-1.1,0-2.1,0.4-3.1,1.3c-1,0.9-1.7,2.2-2.3,4.1c-0.4,1.4-0.6,4.3-0.6,8.6v8.4h-3.3V12.5z"/>
	<path fill="#63A8C6" d="M176.7,12.5h3.4l8.3,18.1l8.2-18.1h3.4l-11.3,24.8h-0.6L176.7,12.5z"/>
	<path fill="#63A8C6" d="M225.8,29.1l2.7,1.4c-0.9,1.7-1.9,3.1-3.1,4.2c-1.2,1.1-2.5,1.9-3.9,2.4c-1.4,0.6-3.1,0.8-4.9,0.8c-4,0-7.2-1.3-9.5-4c-2.3-2.7-3.4-5.6-3.4-9c0-3.1,1-5.9,2.9-8.4c2.4-3.1,5.7-4.7,9.8-4.7c4.2,0,7.6,1.6,10.1,4.8c1.8,2.3,2.7,5.1,2.7,8.5H207c0.1,2.9,1,5.2,2.8,7.1c1.8,1.8,4,2.8,6.6,2.8c1.3,0,2.5-0.2,3.7-0.7c1.2-0.4,2.2-1,3-1.7C223.9,31.9,224.9,30.7,225.8,29.1z M225.8,22.4c-0.4-1.7-1-3.1-1.9-4.1c-0.8-1-1.9-1.8-3.2-2.5c-1.3-0.6-2.7-0.9-4.2-0.9c-2.4,0-4.5,0.8-6.3,2.3c-1.3,1.1-2.2,2.8-2.9,5.1H225.8z"/>
	<path fill="#63A8C6" d="M234.1,12.5h3.3v3.6c1-1.4,2-2.5,3.1-3.2c1.1-0.7,2.2-1.1,3.4-1.1c0.9,0,1.8,0.3,2.8,0.8l-1.7,2.7c-0.7-0.3-1.2-0.4-1.7-0.4c-1.1,0-2.1,0.4-3.1,1.3c-1,0.9-1.7,2.2-2.3,4.1c-0.4,1.4-0.6,4.3-0.6,8.6v8.4h-3.3V12.5z"/>
</g>
<g>
	<defs>
		<rect id="rect1" x="1.9" y="1.7" width="45" height="45"/>
	</defs>
	<clipPath id="path1">
		<use xlink:href="#rect1"  overflow="visible"/>
	</clipPath>
	<g clip-path="url(#path1)">
		<defs>
			<path id="path2" d="M46.3,39.2c0,4.1-3.3,7.5-7.4,7.5H9.3c-4.1,0-7.4-3.4-7.4-7.5v-30c0-4.1,3.3-7.5,7.4-7.5h29.6c4.1,0,7.4,3.4,7.4,7.5V39.2z"/>
		</defs>
		<clipPath id="path3">
			<use xlink:href="#path2"  overflow="visible"/>
		</clipPath>
		<g clip-path="url(#path3)">
			<polygon fill="#0F2A4C" points="46.9,46.7 1.9,46.7 1.9,24.6 1.9,1.7 46.9,1.7 			"/>
		</g>
		<g clip-path="url(#path3)">
			<ellipse opacity="0.2" fill="#2E8ACA" cx="1.2" cy="1.7" rx="44.4" ry="45"/>
			<ellipse opacity="0.2" fill="#2E8ACA" cx="-3.8" cy="1.9" rx="44.4" ry="45"/>
			<ellipse opacity="0.2" fill="#2E8ACA" cx="-9.3" cy="2.9" rx="44.4" ry="45"/>
			<ellipse opacity="0.2" fill="#2E8ACA" cx="-14.9" cy="4.6" rx="44.4" ry="45"/>
		</g>
		<g clip-path="url(#path3)">
			<ellipse fill="none" stroke="#77CFE5" stroke-width="2.9791" stroke-miterlimit="10" cx="1.2" cy="1.7" rx="44.4" ry="45"/>
			<ellipse opacity="0.8" fill="none" stroke="#77CFE5" stroke-width="2.9791" stroke-miterlimit="10" cx="-3.8" cy="1.9" rx="44.4" ry="45"/>
			<ellipse opacity="0.6" fill="none" stroke="#77CFE5" stroke-width="2.9791" stroke-miterlimit="10" cx="-9.3" cy="2.9" rx="44.4" ry="45"/>
			<ellipse opacity="0.4" fill="none" stroke="#77CFE5" stroke-width="2.9791" stroke-miterlimit="10" cx="-14.9" cy="4.6" rx="44.4" ry="45"/>
		</g>
	</g>
	<rect x="1.2" y="1.7" display="none" clip-path="url(#path1)" fill="#FFFFFF" width="45" height="45"/>
</g>
</svg>