<?xml version="1.0" encoding="utf-8" ?>
<svg version="1.1" xmlns="http://www.w3.org/2000/svg" viewBox="90.2 83.5 106.6 107.5">
    <clipPath id="roundedClip">
        <path d="M196.8,173.1c0,9.9-7.9,17.9-17.7,17.9h-70.7c-9.8,0-17.7-8-17.7-17.9v-71.7c0-9.9,7.9-17.9,17.7-17.9h70.7c9.8,0,17.7,8,17.7,17.9V173.1z" />
    </clipPath>
    <g clip-path="url(#roundedClip)">
        <polygon fill="#0F2A4C" points="198.3,191 90.7,191 90.7,138.2 90.7,83.5 198.3,83.5" />
        <ellipse opacity="0.2" fill="#2E8ACA" cx="89.3" cy="83.5" rx="106" ry="107.5" />
        <ellipse opacity="0.2" fill="#2E8ACA" cx="77.2" cy="84.1" rx="106" ry="107.5" />
        <ellipse opacity="0.2" fill="#2E8ACA" cx="64.1" cy="86.4" rx="106" ry="107.5" />
        <ellipse opacity="0.2" fill="#2E8ACA" cx="50.8" cy="90.5" rx="106" ry="107.5" />
        <ellipse fill="none" stroke="#77CFE5" stroke-width="2.9791" stroke-miterlimit="10" cx="89.3" cy="83.5" rx="106" ry="107.5" />
        <ellipse opacity="0.8" fill="none" stroke="#77CFE5" stroke-width="2.9791" stroke-miterlimit="10" cx="77.2" cy="84.1" rx="106" ry="107.5" />
        <ellipse opacity="0.6" fill="none" stroke="#77CFE5" stroke-width="2.9791" stroke-miterlimit="10" cx="64.1" cy="86.4" rx="106" ry="107.5" />
        <ellipse opacity="0.4" fill="none" stroke="#77CFE5" stroke-width="2.9791" stroke-miterlimit="10" cx="50.8" cy="90.5" rx="106" ry="107.5" />
    </g>
</svg>