<?xml version="1.0" encoding="utf-8"?>
<!-- Generator: Adobe Illustrator 18.0.0, SVG Export Plug-In . SVG Version: 6.00 Build 0)  -->
<!DOCTYPE svg PUBLIC "-//W3C//DTD SVG 1.1//EN" "http://www.w3.org/Graphics/SVG/1.1/DTD/svg11.dtd">
<svg version="1.1" xmlns="http://www.w3.org/2000/svg" xmlns:xlink="http://www.w3.org/1999/xlink" x="0px" y="0px"
	 viewBox="0 0 288 288" enable-background="new 0 0 288 288" xml:space="preserve">
<g id="Layer_2">
	<polygon display="none" opacity="0.25" fill="#2E8ACA" points="0,148.1 0,148.1 72,148.1 72,76.1 54,112.9 36,112.9 18,112.9 	"/>
	<polygon display="none" opacity="0.25" fill="#2E8ACA" points="-0.1,140.1 0,148.1 72,148.1 71.9,112.8 54,130.8 36,121.6 
		18,130.8 	"/>
	<polygon display="none" opacity="0.25" fill="#2E8ACA" points="-0.1,130.8 0,148.1 72,148.1 71.9,112.8 54,76.1 36,103.2 18,103.2 
			"/>
	<polygon display="none" opacity="0.25" fill="#2E8ACA" points="-0.1,140.2 0,148.1 72,148.1 71.9,112.8 54,94.1 36,112.8 18,123.2 
			"/>
</g>
<g id="Layer_3">
</g>
<g id="Layer_1">
	<g>
		<path d="M99.1,124c3.4,0,6.2,1.2,8.4,3.7c2,2.2,3,4.8,3,7.9c0,3.1-1.1,5.7-3.2,8c-2.1,2.3-4.9,3.4-8.2,3.4c-3.4,0-6.1-1.1-8.2-3.4
			c-2.1-2.3-3.2-4.9-3.2-8c0-3,1-5.6,3-7.9C92.9,125.2,95.7,124,99.1,124z M99.1,126.7c-2.3,0-4.3,0.9-6,2.6
			c-1.7,1.7-2.5,3.8-2.5,6.3c0,1.6,0.4,3,1.1,4.4c0.8,1.4,1.8,2.4,3.1,3.2c1.3,0.7,2.7,1.1,4.3,1.1c1.6,0,3-0.4,4.3-1.1
			c1.3-0.7,2.3-1.8,3.1-3.2c0.8-1.4,1.1-2.8,1.1-4.4c0-2.4-0.8-4.5-2.5-6.3C103.4,127.6,101.4,126.7,99.1,126.7z"/>
		<path d="M115.7,124.5h2.8v4c1.1-1.5,2.4-2.7,3.8-3.4c1.4-0.8,3.1-1.1,4.8-1.1c3.1,0,5.8,1.1,8,3.4c2.2,2.2,3.3,4.9,3.3,8.1
			c0,3.2-1.1,5.9-3.3,8.2c-2.2,2.2-4.8,3.4-7.9,3.4c-1.7,0-3.3-0.4-4.8-1.1c-1.5-0.7-2.8-1.8-3.9-3.2v11.7h-2.8V124.5z M126.9,126.7
			c-2.4,0-4.5,0.8-6.1,2.5c-1.7,1.7-2.5,3.8-2.5,6.3c0,1.7,0.4,3.1,1.1,4.5s1.8,2.4,3.2,3.1c1.4,0.8,2.8,1.2,4.4,1.2
			c1.5,0,2.9-0.4,4.3-1.2s2.4-1.9,3.2-3.3c0.8-1.4,1.2-2.9,1.2-4.4c0-1.5-0.4-3-1.2-4.4c-0.8-1.4-1.8-2.5-3.2-3.2
			C129.9,127.1,128.5,126.7,126.9,126.7z"/>
		<path fill="#808285" d="M154.7,126.9l-1.8,1.9c-1.5-1.5-3-2.2-4.4-2.2c-0.9,0-1.7,0.3-2.3,0.9s-1,1.3-1,2.1c0,0.7,0.3,1.4,0.8,2
			c0.5,0.7,1.7,1.4,3.4,2.3c2.1,1.1,3.5,2.1,4.3,3.1c0.7,1,1.1,2.2,1.1,3.4c0,1.8-0.6,3.3-1.9,4.6c-1.3,1.2-2.8,1.9-4.7,1.9
			c-1.3,0-2.5-0.3-3.6-0.8c-1.1-0.5-2.1-1.3-2.8-2.3l1.8-2c1.4,1.6,3,2.4,4.6,2.4c1.1,0,2.1-0.4,2.9-1.1c0.8-0.7,1.2-1.6,1.2-2.5
			c0-0.8-0.3-1.5-0.8-2.1c-0.5-0.6-1.7-1.4-3.5-2.3c-2-1-3.3-2-4-3c-0.7-1-1.1-2.1-1.1-3.4c0-1.7,0.6-3,1.7-4.1
			c1.1-1.1,2.6-1.6,4.3-1.6C150.6,124,152.6,125,154.7,126.9z"/>
		<path fill="#808285" d="M178,139.1l2.4,1.2c-0.8,1.5-1.7,2.8-2.7,3.7c-1,0.9-2.2,1.6-3.4,2.1s-2.7,0.7-4.3,0.7
			c-3.6,0-6.3-1.2-8.4-3.5c-2-2.3-3-5-3-7.9c0-2.8,0.9-5.2,2.6-7.4c2.2-2.8,5-4.1,8.7-4.1c3.7,0,6.7,1.4,8.9,4.2
			c1.6,2,2.4,4.5,2.4,7.5h-19.6c0.1,2.5,0.9,4.6,2.4,6.2c1.6,1.6,3.5,2.4,5.8,2.4c1.1,0,2.2-0.2,3.2-0.6c1.1-0.4,1.9-0.9,2.7-1.5
			C176.4,141.6,177.2,140.6,178,139.1z M178,133.2c-0.4-1.5-0.9-2.7-1.6-3.6c-0.7-0.9-1.7-1.6-2.8-2.2c-1.2-0.5-2.4-0.8-3.7-0.8
			c-2.1,0-4,0.7-5.5,2.1c-1.1,1-2,2.5-2.6,4.5H178z"/>
		<path fill="#808285" d="M185.3,124.5h2.9v3.2c0.9-1.3,1.8-2.2,2.7-2.8c0.9-0.6,1.9-0.9,3-0.9c0.8,0,1.6,0.2,2.5,0.7l-1.5,2.4
			c-0.6-0.3-1.1-0.4-1.5-0.4c-0.9,0-1.8,0.4-2.7,1.2c-0.9,0.8-1.5,2-2,3.6c-0.3,1.2-0.5,3.8-0.5,7.5v7.4h-2.9V124.5z"/>
		<path fill="#808285" d="M196.6,124.5h3l7.3,15.9l7.2-15.9h3l-10,21.8h-0.5L196.6,124.5z"/>
		<path fill="#808285" d="M239.9,139.1l2.4,1.2c-0.8,1.5-1.7,2.8-2.7,3.7c-1,0.9-2.2,1.6-3.4,2.1s-2.7,0.7-4.3,0.7
			c-3.6,0-6.3-1.2-8.4-3.5c-2-2.3-3-5-3-7.9c0-2.8,0.9-5.2,2.6-7.4c2.2-2.8,5-4.1,8.7-4.1c3.7,0,6.7,1.4,8.9,4.2
			c1.6,2,2.4,4.5,2.4,7.5h-19.6c0.1,2.5,0.9,4.6,2.4,6.2c1.6,1.6,3.5,2.4,5.8,2.4c1.1,0,2.2-0.2,3.2-0.6c1.1-0.4,1.9-0.9,2.7-1.5
			C238.2,141.6,239,140.6,239.9,139.1z M239.9,133.2c-0.4-1.5-0.9-2.7-1.6-3.6c-0.7-0.9-1.7-1.6-2.8-2.2c-1.2-0.5-2.4-0.8-3.7-0.8
			c-2.1,0-4,0.7-5.5,2.1c-1.1,1-2,2.5-2.6,4.5H239.9z"/>
		<path fill="#808285" d="M247.1,124.5h2.9v3.2c0.9-1.3,1.8-2.2,2.7-2.8c0.9-0.6,1.9-0.9,3-0.9c0.8,0,1.6,0.2,2.5,0.7l-1.5,2.4
			c-0.6-0.3-1.1-0.4-1.5-0.4c-0.9,0-1.8,0.4-2.7,1.2c-0.9,0.8-1.5,2-2,3.6c-0.3,1.2-0.5,3.8-0.5,7.5v7.4h-2.9V124.5z"/>
	</g>
</g>
<g id="Layer_5">
</g>
<g id="Layer_4">
	<g>
		<defs>
			<rect id="SVGID_1_" x="20.7" y="108" width="55.5" height="55.5"/>
		</defs>
		<clipPath id="SVGID_2_">
			<use xlink:href="#SVGID_1_"  overflow="visible"/>
		</clipPath>
		<g clip-path="url(#SVGID_2_)">
			<defs>
				<path id="SVGID_3_" d="M75.4,154.2c0,5.1-4.1,9.2-9.1,9.2H29.8c-5,0-9.1-4.1-9.1-9.2v-37c0-5.1,4.1-9.2,9.1-9.2h36.5
					c5,0,9.1,4.1,9.1,9.2V154.2z"/>
			</defs>
			<clipPath id="SVGID_4_">
				<use xlink:href="#SVGID_3_"  overflow="visible"/>
			</clipPath>
			<g clip-path="url(#SVGID_4_)">
				<polygon fill="#0F2A4C" points="76.2,163.5 20.7,163.5 20.7,136.2 20.7,108 76.2,108 				"/>
			</g>
			<g clip-path="url(#SVGID_4_)">
				<ellipse opacity="0.2" fill="#2E8ACA" cx="19.9" cy="108" rx="54.7" ry="55.5"/>
				<ellipse opacity="0.2" fill="#2E8ACA" cx="13.7" cy="108.3" rx="54.7" ry="55.5"/>
				<ellipse opacity="0.2" fill="#2E8ACA" cx="6.9" cy="109.5" rx="54.7" ry="55.5"/>
				<ellipse opacity="0.2" fill="#2E8ACA" cx="0.1" cy="111.6" rx="54.7" ry="55.5"/>
			</g>
			<g clip-path="url(#SVGID_4_)">
				<ellipse fill="none" stroke="#77CFE5" stroke-width="2.9791" stroke-miterlimit="10" cx="19.9" cy="108" rx="54.7" ry="55.5"/>
				
					<ellipse opacity="0.8" fill="none" stroke="#77CFE5" stroke-width="2.9791" stroke-miterlimit="10" cx="13.7" cy="108.3" rx="54.7" ry="55.5"/>
				
					<ellipse opacity="0.6" fill="none" stroke="#77CFE5" stroke-width="2.9791" stroke-miterlimit="10" cx="6.9" cy="109.5" rx="54.7" ry="55.5"/>
				
					<ellipse opacity="0.4" fill="none" stroke="#77CFE5" stroke-width="2.9791" stroke-miterlimit="10" cx="0.1" cy="111.6" rx="54.7" ry="55.5"/>
			</g>
		</g>
		<rect x="19.9" y="108" display="none" clip-path="url(#SVGID_2_)" fill="#FFFFFF" width="55.5" height="55.5"/>
	</g>
</g>
</svg>
